<svg width="41" height="9" viewBox="0 0 41 9" fill="none" xmlns="http://www.w3.org/2000/svg">
<path d="M4.71924 1.718V2.735H2.10024V4.346H4.10724V5.345H2.10024V8H0.840238V1.718H4.71924ZM10.3197 3.014V8H9.0507V7.37C8.8887 7.586 8.6757 7.757 8.4117 7.883C8.1537 8.003 7.8717 8.063 7.5657 8.063C7.1757 8.063 6.8307 7.982 6.5307 7.82C6.2307 7.652 5.9937 7.409 5.8197 7.091C5.6517 6.767 5.5677 6.383 5.5677 5.939V3.014H6.8277V5.759C6.8277 6.155 6.9267 6.461 7.1247 6.677C7.3227 6.887 7.5927 6.992 7.9347 6.992C8.2827 6.992 8.5557 6.887 8.7537 6.677C8.9517 6.461 9.0507 6.155 9.0507 5.759V3.014H10.3197ZM12.8229 1.34V8H11.5629V1.34H12.8229ZM15.3278 1.34V8H14.0678V1.34H15.3278ZM22.9922 1.718V2.735H21.3182V8H20.0582V2.735H18.3842V1.718H22.9922ZM24.5505 2.42C24.3285 2.42 24.1425 2.351 23.9925 2.213C23.8485 2.069 23.7765 1.892 23.7765 1.682C23.7765 1.472 23.8485 1.298 23.9925 1.16C24.1425 1.016 24.3285 0.944 24.5505 0.944C24.7725 0.944 24.9555 1.016 25.0995 1.16C25.2495 1.298 25.3245 1.472 25.3245 1.682C25.3245 1.892 25.2495 2.069 25.0995 2.213C24.9555 2.351 24.7725 2.42 24.5505 2.42ZM25.1715 3.014V8H23.9115V3.014H25.1715ZM32.6084 2.942C33.2204 2.942 33.7124 3.131 34.0844 3.509C34.4624 3.881 34.6514 4.403 34.6514 5.075V8H33.3914V5.246C33.3914 4.856 33.2924 4.559 33.0944 4.355C32.8964 4.145 32.6264 4.04 32.2844 4.04C31.9424 4.04 31.6694 4.145 31.4654 4.355C31.2674 4.559 31.1684 4.856 31.1684 5.246V8H29.9084V5.246C29.9084 4.856 29.8094 4.559 29.6114 4.355C29.4134 4.145 29.1434 4.04 28.8014 4.04C28.4534 4.04 28.1774 4.145 27.9734 4.355C27.7754 4.559 27.6764 4.856 27.6764 5.246V8H26.4164V3.014H27.6764V3.617C27.8384 3.407 28.0454 3.242 28.2974 3.122C28.5554 3.002 28.8374 2.942 29.1434 2.942C29.5334 2.942 29.8814 3.026 30.1874 3.194C30.4934 3.356 30.7304 3.59 30.8984 3.896C31.0604 3.608 31.2944 3.377 31.6004 3.203C31.9124 3.029 32.2484 2.942 32.6084 2.942ZM40.4821 5.399C40.4821 5.579 40.4701 5.741 40.4461 5.885H36.8011C36.8311 6.245 36.9571 6.527 37.1791 6.731C37.4011 6.935 37.6741 7.037 37.9981 7.037C38.4661 7.037 38.7991 6.836 38.9971 6.434H40.3561C40.2121 6.914 39.9361 7.31 39.5281 7.622C39.1201 7.928 38.6191 8.081 38.0251 8.081C37.5451 8.081 37.1131 7.976 36.7291 7.766C36.3511 7.55 36.0541 7.247 35.8381 6.857C35.6281 6.467 35.5231 6.017 35.5231 5.507C35.5231 4.991 35.6281 4.538 35.8381 4.148C36.0481 3.758 36.3421 3.458 36.7201 3.248C37.0981 3.038 37.5331 2.933 38.0251 2.933C38.4991 2.933 38.9221 3.035 39.2941 3.239C39.6721 3.443 39.9631 3.734 40.1671 4.112C40.3771 4.484 40.4821 4.913 40.4821 5.399ZM39.1771 5.039C39.1711 4.715 39.0541 4.457 38.8261 4.265C38.5981 4.067 38.3191 3.968 37.9891 3.968C37.6771 3.968 37.4131 4.064 37.1971 4.256C36.9871 4.442 36.8581 4.703 36.8101 5.039H39.1771Z" fill="#018C0F"/>
</svg>
