<svg width="8" height="6" viewBox="0 0 8 6" fill="none" xmlns="http://www.w3.org/2000/svg">
<path d="M1.33329 3.5C1.15648 3.5 0.986912 3.44732 0.861888 3.35355C0.736864 3.25979 0.666626 3.13261 0.666626 3C0.666626 2.86739 0.736864 2.74021 0.861888 2.64645C0.986912 2.55268 1.15648 2.5 1.33329 2.5C1.5101 2.5 1.67967 2.55268 1.8047 2.64645C1.92972 2.74021 1.99996 2.86739 1.99996 3C1.99996 3.13261 1.92972 3.25979 1.8047 3.35355C1.67967 3.44732 1.5101 3.5 1.33329 3.5ZM1.33329 5.5C1.15648 5.5 0.986912 5.44732 0.861888 5.35355C0.736864 5.25979 0.666626 5.13261 0.666626 5C0.666626 4.86739 0.736864 4.74021 0.861888 4.64645C0.986912 4.55268 1.15648 4.5 1.33329 4.5C1.5101 4.5 1.67967 4.55268 1.8047 4.64645C1.92972 4.74021 1.99996 4.86739 1.99996 5C1.99996 5.13261 1.92972 5.25979 1.8047 5.35355C1.67967 5.44732 1.5101 5.5 1.33329 5.5ZM3.33329 5C3.33329 5.13261 3.40353 5.25979 3.52855 5.35355C3.65358 5.44732 3.82315 5.5 3.99996 5.5C4.17677 5.5 4.34634 5.44732 4.47136 5.35355C4.59639 5.25979 4.66663 5.13261 4.66663 5C4.66663 4.86739 4.59639 4.74021 4.47136 4.64645C4.34634 4.55268 4.17677 4.5 3.99996 4.5C3.82315 4.5 3.65358 4.55268 3.52855 4.64645C3.40353 4.74021 3.33329 4.86739 3.33329 5ZM6.66663 5.5C6.48981 5.5 6.32025 5.44732 6.19522 5.35355C6.0702 5.25979 5.99996 5.13261 5.99996 5C5.99996 4.86739 6.0702 4.74021 6.19522 4.64645C6.32025 4.55268 6.48981 4.5 6.66663 4.5C6.84344 4.5 7.01301 4.55268 7.13803 4.64645C7.26305 4.74021 7.33329 4.86739 7.33329 5C7.33329 5.13261 7.26305 5.25979 7.13803 5.35355C7.01301 5.44732 6.84344 5.5 6.66663 5.5ZM3.33329 3C3.33329 3.13261 3.40353 3.25979 3.52855 3.35355C3.65358 3.44732 3.82315 3.5 3.99996 3.5C4.17677 3.5 4.34634 3.44732 4.47136 3.35355C4.59639 3.25979 4.66663 3.13261 4.66663 3C4.66663 2.86739 4.59639 2.74021 4.47136 2.64645C4.34634 2.55268 4.17677 2.5 3.99996 2.5C3.82315 2.5 3.65358 2.55268 3.52855 2.64645C3.40353 2.74021 3.33329 2.86739 3.33329 3ZM6.66663 3.5C6.48981 3.5 6.32025 3.44732 6.19522 3.35355C6.0702 3.25979 5.99996 3.13261 5.99996 3C5.99996 2.86739 6.0702 2.74021 6.19522 2.64645C6.32025 2.55268 6.48981 2.5 6.66663 2.5C6.84344 2.5 7.01301 2.55268 7.13803 2.64645C7.26305 2.74021 7.33329 2.86739 7.33329 3C7.33329 3.13261 7.26305 3.25979 7.13803 3.35355C7.01301 3.44732 6.84344 3.5 6.66663 3.5ZM1.33329 0.5C1.15648 0.5 0.986912 0.552679 0.861888 0.646447C0.736864 0.740215 0.666626 0.867392 0.666626 1C0.666626 1.13261 0.736864 1.25979 0.861888 1.35355C0.986912 1.44732 1.15648 1.5 1.33329 1.5H6.66663C6.84344 1.5 7.01301 1.44732 7.13803 1.35355C7.26305 1.25979 7.33329 1.13261 7.33329 1C7.33329 0.867392 7.26305 0.740215 7.13803 0.646447C7.01301 0.552679 6.84344 0.5 6.66663 0.5H1.33329Z" fill="#A7A7A7"/>
</svg>
